<?xml version="1.0" encoding="UTF-8"?>
<svg width="48px" height="48px" viewBox="0 0 48 48" version="1.1" xmlns="http://www.w3.org/2000/svg" xmlns:xlink="http://www.w3.org/1999/xlink">
    <!-- Generator: Sketch 46.2 (44496) - http://www.bohemiancoding.com/sketch -->
    <title>activities_48</title>
    <desc>Created with Sketch.</desc>
    <defs></defs>
    <g id="Icons-48-x-48px" stroke="none" stroke-width="1" fill="none" fill-rule="evenodd">
        <g id="activities_48" fill="#000000">
            <path d="M46,26 L40,26 L40,22 L30,22 L30,26 L18,26 L18,22 L8,22 L8,26 L2,26 L2,14.004 C2,12.898 2.898,12 4.004,12 L16,12 L32,12 L43.996,12 C45.102,12 46,12.898 46,14.004 L46,26 Z M32,26 L32,24 L38,24 L38,26 L38,28 L38,30 L32,30 L32,28 L32,26 Z M10,26 L10,24 L16,24 L16,26 L16,28 L16,30 L10,30 L10,28 L10,26 Z M46,41.996 C46,43.1 45.102,44 43.996,44 L4.004,44 C2.898,44 2,43.1 2,41.996 L2,28 L8,28 L8,32 L18,32 L18,28 L30,28 L30,32 L40,32 L40,28 L46,28 L46,41.996 Z M18,10 L30,10 L30,6 L18,6 L18,10 Z M43.996,10 L32,10 L32,4 L16,4 L16,10 L4.004,10 C1.792,10 0,11.792 0,14.004 L0,41.996 C0,44.208 1.792,46 4.004,46 L43.996,46 C46.208,46 48,44.208 48,41.996 L48,14.004 C48,11.792 46.208,10 43.996,10 L43.996,10 Z" id="activities"></path>
        </g>
    </g>
</svg>