<svg width="24px" height="24px" viewBox="0 0 24 24" version="1.1" xmlns="http://www.w3.org/2000/svg" xmlns:xlink="http://www.w3.org/1999/xlink"><g id="Icons-24-x-24px" stroke="none" stroke-width="1" fill="none" fill-rule="evenodd"><g id="add_24" fill="#000000"><g id="add"><path d="M12,0 C5.373,0 0,5.373 0,12 C0,18.627 5.373,24 12,24 C18.627,24 24,18.627 24,12 C24,5.373 18.627,0 12,0 M12,1 C18.065,1 23,5.935 23,12 C23,18.065 18.065,23 12,23 C5.935,23 1,18.065 1,12 C1,5.935 5.935,1 12,1" id="Fill-1"></path><path d="M11.5,11.5 L6,11.5 L6,12.5 L11.5,12.5 L11.5,18 L12.5,18 L12.5,12.5 L18,12.5 L18,11.5 L12.5,11.5 L12.5,6 L11.5,6 L11.5,11.5 Z" id="Combined-Shape" fill-rule="nonzero"></path></g></g></g></svg>
