<?xml version="1.0" encoding="UTF-8"?>
<svg width="24px" height="24px" viewBox="0 0 24 24" version="1.1" xmlns="http://www.w3.org/2000/svg" xmlns:xlink="http://www.w3.org/1999/xlink">
    <!-- Generator: Sketch 46.2 (44496) - http://www.bohemiancoding.com/sketch -->
    <title>audio copy 5</title>
    <desc>Created with Sketch.</desc>
    <defs></defs>
    <g id="Icons-24-x-24px" stroke="none" stroke-width="1" fill="none" fill-rule="evenodd">
        <g id="audio-copy-5">
            <path d="M24,12 C24,18.62775 18.62775,24 12,24 C5.37225,24 0,18.62775 0,12 C0,5.37225 5.37225,0 12,0 C18.62775,0 24,5.37225 24,12" id="Fill-1" fill="#FF509E"></path>
            <g id="Page-1" transform="translate(6.000000, 8.000000)" fill="#FFFFFF">
                <path d="M8.98075,0.323573684 L8.98075,0.839415789 C10.46475,1.4751 11.49975,2.87483684 11.49975,4.50004737 C11.49975,6.12478421 10.46475,7.52499474 8.98075,8.16020526 L8.98075,8.67652105 C10.74925,8.01288947 11.99975,6.39478421 11.99975,4.50004737 C11.99975,2.60531053 10.74925,0.987205263 8.98075,0.323573684" id="Fill-1"></path>
                <path d="M7.98075,2.42857895 L7.98075,2.95578947 C8.64275,3.28263158 9.09975,3.92542105 9.09975,4.67289474 C9.09975,5.42036842 8.64275,6.06363158 7.98075,6.39047368 L7.98075,6.91768421 C8.92925,6.55863158 9.59975,5.69084211 9.59975,4.67289474 C9.59975,3.65542105 8.92925,2.78763158 7.98075,2.42857895" id="Fill-3"></path>
                <path d="M5.9,8.16783158 L2.9,6.48009474 L2.9,2.53430526 L5.9,0.8352 L5.9,8.16783158 Z M1.001,6.27641053 C0.7245,6.27641053 0.5,6.06325263 0.5,5.80177895 L0.5,3.21356842 C0.5,2.95209474 0.7245,2.73941053 1.001,2.73941053 L2.4,2.73941053 L2.4,6.27641053 L1.001,6.27641053 Z M2.4,2.26572632 L1.001,2.26572632 C0.448,2.26572632 0,2.69014737 0,3.21356842 L0,5.80177895 C0,6.32567368 0.448,6.75009474 1.001,6.75009474 L2.4,6.75009474 L6.4,9.00009474 L6.4,9.47368421e-05 L2.4,2.26572632 Z" id="Fill-5"></path>
            </g>
        </g>
    </g>
</svg>