<svg viewBox="0 0 48 40" version="1.1" xmlns="http://www.w3.org/2000/svg"><path fill="#000000" d="M44,4 L40,4 L40,0 L38,0 L38,4 L10,4 L10,0 L8,0 L8,4 L4,4 C1.790861,4 2.705415e-16,5.790861 0,8 L0,36 C2.705415e-16,38.209139 1.790861,40 4,40 L44,40 C46.209139,40 48,38.209139 48,36 L48,8 C48,5.790861 46.209139,4 44,4 Z M46,36 C46,37.1045695 45.1045695,38 44,38 L4,38 C2.8954305,38 2,37.1045695 2,36 L2,16 L46,16 L46,36 Z M46,14 L2,14 L2,8 C2,6.8954305 2.8954305,6 4,6 L8,6 L8,10 L10,10 L10,6 L38,6 L38,10 L40,10 L40,6 L44,6 C45.1045695,6 46,6.8954305 46,8 L46,14 Z"></path></svg>
