<svg width="24px" height="24px" viewBox="0 0 24 24" version="1.1" xmlns="http://www.w3.org/2000/svg" xmlns:xlink="http://www.w3.org/1999/xlink"><g id="Icons-24-x-24px" stroke="none" stroke-width="1" fill="none" fill-rule="evenodd"><g id="collapse_24" fill="#000000"><g id="collapse" transform="translate(4.000000, 0.000000)"><polygon id="Fill-4" points="0.7071 6.0312 0.0001 6.7382 5.2931 12.0312 0.0001 17.3242 0.7071 18.0312 6.7071 12.0312"></polygon><path d="M13.7114,0 L10.7024,0 C9.6004,0 8.7074,0.893 8.7074,1.996 L8.7074,22.004 C8.7074,23.106 9.6004,24 10.7024,24 L13.7114,24 C14.8134,24 15.7074,23.106 15.7074,22.004 L15.7074,1.996 C15.7074,0.893 14.8134,0 13.7114,0 M13.7114,1 C14.2604,1 14.7074,1.447 14.7074,1.996 L14.7074,22.004 C14.7074,22.553 14.2604,23 13.7114,23 L10.7024,23 C10.1534,23 9.7074,22.553 9.7074,22.004 L9.7074,1.996 C9.7074,1.447 10.1534,1 10.7024,1 L13.7114,1" id="Fill-1"></path></g></g><g id="labels" transform="translate(0.000000, -606.000000)"></g></g></svg>
