<svg width="48px" height="48px" viewBox="0 0 48 48" version="1.1" xmlns="http://www.w3.org/2000/svg" xmlns:xlink="http://www.w3.org/1999/xlink"><g id="Icons-48-x-48px" stroke="none" stroke-width="1" fill="none" fill-rule="evenodd">        <g id="community_48" fill="#000000"><g id="community" transform="translate(2.000000, 2.000000)"><path d="M2,40 C2,41.1045695 2.8954305,42 4,42 L12,42 L12,8 L2,8 L2,40 Z M0,6 L14,6 L14,44 L4,44 C1.790861,44 2.705415e-16,42.209139 0,40 L0,6 Z" id="Rectangle-3" fill-rule="nonzero"></path><path d="M14,2 L14,42 L28,42 L28,2 L14,2 Z M12,0 L30,0 L30,44 L12,44 L12,0 Z" id="Rectangle-3-Copy" fill-rule="nonzero"></path><path d="M30,42 L40,42 C41.1045695,42 42,41.1045695 42,40 L42,16.8282707 L36.0017586,10.8284271 L30,16.8285835 L30,42 Z M28,16 L36.0021362,8 L44,16 L44,40 C44,42.209139 42.209139,44 40,44 L28,44 L28,16 Z" id="Rectangle-3-Copy-2" fill-rule="nonzero"></path>                <path d="M36,24 C37.1045695,24 38,23.1045695 38,22 C38,20.8954305 37.1045695,20 36,20 C34.8954305,20 34,20.8954305 34,22 C34,23.1045695 34.8954305,24 36,24 Z M36,26 C33.790861,26 32,24.209139 32,22 C32,19.790861 33.790861,18 36,18 C38.209139,18 40,19.790861 40,22 C40,24.209139 38.209139,26 36,26 Z" id="Oval-Copy" fill-rule="nonzero"></path><path d="M18,24 L24,24 L24,18 L18,18 L18,24 Z M16,16 L26,16 L26,26 L16,26 L16,16 Z" id="Rectangle-4-Copy-2" fill-rule="nonzero"></path><path d="M18,6 L18,12 L24,12 L24,6 L18,6 Z M16,4 L26,4 L26,14 L16,14 L16,4 Z" id="Rectangle-4-Copy-3" fill-rule="nonzero"></path><rect id="Rectangle-4" x="4" y="12" width="6" height="2"></rect><rect id="Rectangle-4-Copy" x="4" y="16" width="6" height="2"></rect><rect id="Rectangle-4-Copy-4" x="4" y="20" width="6" height="2"></rect></g></g></g></svg>
