<?xml version="1.0" encoding="UTF-8"?>
<svg width="24px" height="24px" viewBox="0 0 24 24" version="1.1" xmlns="http://www.w3.org/2000/svg" xmlns:xlink="http://www.w3.org/1999/xlink">
    <!-- Generator: Sketch 46.2 (44496) - http://www.bohemiancoding.com/sketch -->
    <title>compressed copy 5</title>
    <desc>Created with Sketch.</desc>
    <defs></defs>
    <g id="Icons-24-x-24px" stroke="none" stroke-width="1" fill="none" fill-rule="evenodd">
        <g id="compressed-copy-5">
            <path d="M24,12 C24,18.62775 18.62775,24 12,24 C5.37225,24 0,18.62775 0,12 C0,5.37225 5.37225,0 12,0 C18.62775,0 24,5.37225 24,12" id="Fill-1" fill="#6F7878"></path>
            <g id="Group-3" transform="translate(8.000000, 4.000000)" stroke="#FFFFFF" stroke-width="0.5">
                <g id="Group" transform="translate(2.000000, 0.000000)">
                    <g id="Group-2">
                        <path d="M0,5 L4,5" id="Line-Copy"></path>
                        <path d="M0,3 L4,3" id="Line-Copy-2"></path>
                        <path d="M0,1 L4,1" id="Line-Copy-3"></path>
                    </g>
                </g>
                <path d="M2.18092777,6.75 L0.841127289,12.072835 C0.805971833,12.2125026 0.788192427,12.3559759 0.788192427,12.5 C0.788192427,13.4664983 1.57169411,14.25 2.53819243,14.25 L5.46125013,14.25 C5.60527422,14.25 5.74874753,14.2322206 5.88841511,14.1970651 C6.8256783,13.9611484 7.39423197,13.0100982 7.15831527,12.072835 L5.81851478,6.75 L2.18092777,6.75 Z" id="Rectangle-5-Copy"></path>
                <circle id="Oval-Copy" cx="4" cy="11.25" r="1"></circle>
            </g>
        </g>
        <rect id="Rectangle-11-Copy" stroke="#D8D8D8" x="-298.5" y="-25.5" width="342" height="62"></rect>
    </g>
</svg>