<?xml version="1.0" encoding="UTF-8"?>
<svg width="24px" height="24px" viewBox="0 0 24 24" version="1.1" xmlns="http://www.w3.org/2000/svg" xmlns:xlink="http://www.w3.org/1999/xlink">
    <!-- Generator: Sketch 46.2 (44496) - http://www.bohemiancoding.com/sketch -->
    <title>development_24 copy 5</title>
    <desc>Created with Sketch.</desc>
    <defs></defs>
    <g id="Icons-24-x-24px" stroke="none" stroke-width="1" fill="none" fill-rule="evenodd">
        <g id="development_24-copy-5">
            <path d="M24,12 C24,18.62775 18.62775,24 12,24 C5.37225,24 0,18.62775 0,12 C0,5.37225 5.37225,0 12,0 C18.62775,0 24,5.37225 24,12" id="Fill-1" fill="#C038D2"></path>
            <g id="code" transform="translate(6.000000, 7.000000)" fill="#FFFFFF">
                <path d="M3.39645,8.44454286 L0.64645,5.56359048 C0.45145,5.35930476 0.45145,5.02720952 0.64645,4.82292381 L3.39645,1.94197143 L3.04295,1.5716381 L0.29295,4.45206667 C-0.09755,4.86168571 -0.09755,5.52482857 0.29295,5.93392381 L3.04295,8.81487619 L3.39645,8.44454286 Z" id="Fill-7"></path>
                <path d="M8.60355,8.44454286 L11.35355,5.56359048 C11.54855,5.35930476 11.54855,5.02720952 11.35355,4.82292381 L8.60355,1.94197143 L8.95705,1.5716381 L11.70705,4.45206667 C12.09755,4.86168571 12.09755,5.52482857 11.70705,5.93392381 L8.95705,8.81487619 L8.60355,8.44454286 Z" id="Fill-9"></path>
                <polygon id="Page-1" points="8 -0.000471428571 4 10.4762429 4.4645 10.6705762 8.4645 0.194385714"></polygon>
            </g>
        </g>
    </g>
</svg>