<?xml version="1.0" encoding="UTF-8"?>
<svg width="24px" height="24px" viewBox="0 0 24 24" version="1.1" xmlns="http://www.w3.org/2000/svg" xmlns:xlink="http://www.w3.org/1999/xlink">
    <!-- Generator: Sketch 46.2 (44496) - http://www.bohemiancoding.com/sketch -->
    <title>download_24</title>
    <desc>Created with Sketch.</desc>
    <defs></defs>
    <g id="Icons-24-x-24px" stroke="none" stroke-width="1" fill="none" fill-rule="evenodd">
        <g id="download_24" fill="#000000">
            <g id="download" transform="translate(0.000000, 2.000000)">
                <polygon id="Fill-1" points="11.5002 0.0003 11.5002 15.1143 5.7002 9.2993 4.9932 10.0063 11.9992 17.0313 19.0182 10.0183 18.3102 9.3113 12.5002 15.1173 12.5002 0.0003"></polygon>
                <path d="M22.0001,2 L16.0001,2 L16.0001,3 L22.0001,3 C22.5511,3 23.0001,3.449 23.0001,4 L23.0001,18 C23.0001,18.551 22.5511,19 22.0001,19 L2.0001,19 C1.4491,19 1.0001,18.551 1.0001,18 L1.0001,4 C1.0001,3.449 1.4491,3 2.0001,3 L8.0001,3 L8.0001,2 L2.0001,2 C0.8951,2 0.0001,2.895 0.0001,4 L0.0001,18 C0.0001,19.105 0.8951,20 2.0001,20 L22.0001,20 C23.1051,20 24.0001,19.105 24.0001,18 L24.0001,4 C24.0001,2.895 23.1051,2 22.0001,2" id="Fill-2"></path>
            </g>
        </g>
    </g>
</svg>