<svg viewBox="0 0 144 111" version="1.1" xmlns="http://www.w3.org/2000/svg"><g id="Page-1" stroke="none" stroke-width="1" fill="none" fill-rule="evenodd"><g id="empty-state_files" transform="translate(-1.000000, 1.000000)"><path d="M115.708609,16 C111.290331,16 107.708609,12.418278 107.708609,8 C107.708609,3.581722 111.290331,0 115.708609,0 C120.126887,0 123.708609,3.581722 123.708609,8 C123.708609,12.418278 120.126887,16 115.708609,16 Z M83.5231788,92.266055 C81.3140398,92.266055 79.5231788,90.475194 79.5231788,88.266055 C79.5231788,86.056916 81.3140398,84.266055 83.5231788,84.266055 C85.7323178,84.266055 87.5231788,86.056916 87.5231788,88.266055 C87.5231788,90.475194 85.7323178,92.266055 83.5231788,92.266055 Z M21.1258278,30.2385321 C20.0212583,30.2385321 19.1258278,29.3431016 19.1258278,28.2385321 C19.1258278,27.1339626 20.0212583,26.2385321 21.1258278,26.2385321 C22.2303973,26.2385321 23.1258278,27.1339626 23.1258278,28.2385321 C23.1258278,29.3431016 22.2303973,30.2385321 21.1258278,30.2385321 Z M124.304636,34.7798165 C123.200067,34.7798165 122.304636,33.884386 122.304636,32.7798165 C122.304636,31.675247 123.200067,30.7798165 124.304636,30.7798165 C125.409205,30.7798165 126.304636,31.675247 126.304636,32.7798165 C126.304636,33.884386 125.409205,34.7798165 124.304636,34.7798165 Z M55.3509934,101.889908 C54.2464239,101.889908 53.3509934,100.994478 53.3509934,99.8899083 C53.3509934,98.7853388 54.2464239,97.8899083 55.3509934,97.8899083 C56.4555629,97.8899083 57.3509934,98.7853388 57.3509934,99.8899083 C57.3509934,100.994478 56.4555629,101.889908 55.3509934,101.889908 Z M10.0529801,50.4220183 C8.9484106,50.4220183 8.0529801,49.5265878 8.0529801,48.4220183 C8.0529801,47.3174488 8.9484106,46.4220183 10.0529801,46.4220183 C11.1575496,46.4220183 12.0529801,47.3174488 12.0529801,48.4220183 C12.0529801,49.5265878 11.1575496,50.4220183 10.0529801,50.4220183 Z" id="Combined-Shape" stroke="#777677"></path><g id="Group-17" transform="translate(0.000000, 8.000000)"><g id="Group-34" transform="translate(41.000000, 0.000000)" stroke="#777677"><rect id="Rectangle-33" x="0.5" y="0.5" width="56" height="56" rx="2"></rect><polyline id="Path-28" points="0.497820464 46.0701738 11.9799759 27.8522205 23.6889195 38.8888327 39.441316 16 56.4424184 40.0787696"></polyline><circle id="Oval-23" cx="17.5" cy="14.5" r="6.5"></circle></g><g id="Group-2" transform="translate(126.481356, 62.989552) rotate(45.000000) translate(-126.481356, -62.989552) translate(109.981356, 43.989552)"><polygon id="Triangle-2" points="23.1978562 0.716305512 32.3022019 10.0029996 23.0725756 10.1328033"></polygon><path d="M22.9667635,0.839957 L2.308224,0.839957 C1.47979688,0.839957 0.808224,1.51152988 0.808224,2.339957 L0.808224,36.1123642 C0.808224,36.9407913 1.47979688,37.6123642 2.308224,37.6123642 L30.7301794,37.6123642 C31.5586065,37.6123642 32.2301794,36.9407913 32.2301794,36.1123642 L32.2301794,10.2830588 L25.4667635,10.2830588 C24.0860517,10.2830588 22.9667635,9.16377067 22.9667635,7.7830588 L22.9667635,0.839957 Z" id="Shape" stroke="#777677"></path><path d="M23.4578526,1.04793101 L32.0218953,9.75723942 L23.4578526,1.04793101 Z" id="Line" stroke="#777677" stroke-linecap="square"></path><path d="M5.08017529,19.6764403 L25.4701337,19.6764403 L5.08017529,19.6764403 Z" id="Line" stroke="#777677" stroke-linecap="round"></path><path d="M6.25651905,25.2386336 L20.1991386,25.2386336 L6.25651905,25.2386336 Z" id="Line-Copy" stroke="#777677" stroke-linecap="round"></path></g><g id="Group-2-Copy" transform="translate(18.302062, 69.956157) rotate(-30.000000) translate(-18.302062, -69.956157) translate(5.802062, 55.956157)"><polygon id="Triangle-2" points="17.8924785 0.532776932 24.9146493 7.44006966 17.7958498 7.5366156"></polygon><path d="M17.5998864,0.752855 L2.237733,0.752855 C1.40930588,0.752855 0.737733,1.42442788 0.737733,2.252855 L0.737733,26.3473602 C0.737733,27.1757873 1.40930588,27.8473602 2.237733,27.8473602 L23.2447478,27.8473602 C24.0731749,27.8473602 24.7447478,27.1757873 24.7447478,26.3473602 L24.7447478,7.77648129 L20.0998864,7.77648129 C18.7191745,7.77648129 17.5998864,6.65719317 17.5998864,5.27648129 L17.5998864,0.752855 Z" id="Shape" stroke="#777677"></path><path d="M18.1009322,0.937741387 L24.542243,7.28509195" id="Line" stroke="#777677" stroke-linecap="square"></path><path d="M3.91833275,14.6350184 L19.6450829,14.6350184" id="Line" stroke="#777677" stroke-linecap="round"></path><path d="M4.82564526,18.7720878 L15.5795708,18.7720878" id="Line-Copy" stroke="#777677" stroke-linecap="round"></path></g></g><path d="M115.168695,15.9820684 C123.873502,24.652367 129.693122,36.230527 131.056701,49.1417122 L129.743546,47.8285572 C128.962497,47.0475086 127.696167,47.0475086 126.915118,47.8285572 L103.03442,71.7092553 C102.253372,72.4903039 102.253372,73.7566339 103.03442,74.5376824 L118.676055,90.1793168 C108.612711,102.291171 93.4559814,110 76.5033113,110 C58.1471618,110 41.8966273,100.961937 31.9377918,87.0825071 L34.9720108,85.3307002 C35.9285957,84.7784149 36.2563453,83.5552339 35.7040601,82.598649 L25.9736098,65.7450388 L22.5314952,64.9151527 C21.9474399,61.6989469 21.6423841,58.3851886 21.6423841,55 C21.6423841,38.1988087 29.1567736,23.1571463 41,13.0686406 L41,63 C41,64.1045695 41.8954305,65 43,65 L96,65 C97.1045695,65 98,64.1045695 98,63 L98,10 C98,8.8954305 97.1045695,8 96,8 L47.9945118,8 C56.3026519,2.92409778 66.0623652,0 76.5033113,0 C88.1978246,0 99.0377042,3.66839843 107.940495,9.91999676 C108.758908,13.2423484 111.65305,15.7477815 115.168695,15.9820684 Z M83.5231788,92.266055 C85.7323178,92.266055 87.5231788,90.475194 87.5231788,88.266055 C87.5231788,86.056916 85.7323178,84.266055 83.5231788,84.266055 C81.3140398,84.266055 79.5231788,86.056916 79.5231788,88.266055 C79.5231788,90.475194 81.3140398,92.266055 83.5231788,92.266055 Z M124.304636,34.7798165 C125.409205,34.7798165 126.304636,33.884386 126.304636,32.7798165 C126.304636,31.675247 125.409205,30.7798165 124.304636,30.7798165 C123.200066,30.7798165 122.304636,31.675247 122.304636,32.7798165 C122.304636,33.884386 123.200066,34.7798165 124.304636,34.7798165 Z M55.3509934,101.889908 C56.4555629,101.889908 57.3509934,100.994478 57.3509934,99.8899083 C57.3509934,98.7853388 56.4555629,97.8899083 55.3509934,97.8899083 C54.2464239,97.8899083 53.3509934,98.7853388 53.3509934,99.8899083 C53.3509934,100.994478 54.2464239,101.889908 55.3509934,101.889908 Z" id="Combined-Shape" fill="#F6F6F6" fill-rule="nonzero" style="mix-blend-mode: multiply;"></path></g></g></svg>
