<?xml version="1.0" encoding="utf-8"?>
<!-- Generator: Adobe Illustrator 21.0.0, SVG Export Plug-In . SVG Version: 6.00 Build 0)  -->
<svg version="1.1" id="Layer_1" xmlns="http://www.w3.org/2000/svg" xmlns:xlink="http://www.w3.org/1999/xlink" x="0px" y="0px"
	 viewBox="0 0 24 24" style="enable-background:new 0 0 24 24;" xml:space="preserve">
<g id="Icons-24-x-24px">
	<g id="collapse_24">
		<g id="collapse" transform="translate(4.000000, 0.000000)">
			<polygon id="Fill-4" points="9,12 15,18 15.7,17.3 10.4,12 15.7,6.7 15,6 			"/>
			<path id="Fill-1" d="M2,0C0.9,0,0,0.9,0,2l0,20c0,1.1,0.9,2,2,2h3c1.1,0,2-0.9,2-2V2c0-1.1-0.9-2-2-2L2,0 M2,1h3c0.5,0,1,0.4,1,1
				v20c0,0.5-0.4,1-1,1H2c-0.5,0-1-0.4-1-1V2C1,1.4,1.4,1,2,1"/>
		</g>
	</g>
	<g id="labels" transform="translate(0.000000, -606.000000)">
	</g>
</g>
</svg>
