<svg width="24px" height="24px" viewBox="0 0 24 24" version="1.1" xmlns="http://www.w3.org/2000/svg" xmlns:xlink="http://www.w3.org/1999/xlink"><g id="Icons-24-x-24px" stroke="none" stroke-width="1" fill="none" fill-rule="evenodd"><g id="files_24" fill="#000000"><g id="files" transform="translate(3.000000, 0.000000)"><path d="M16.0049,0 L1.9949,0 C0.8929,0 -0.0001,0.893 -0.0001,1.995 L-0.0001,22.005 C-0.0001,23.107 0.8929,24 1.9949,24 L16.0049,24 C17.1069,24 17.9999,23.107 17.9999,22.005 L17.9999,1.995 C17.9999,0.893 17.1069,0 16.0049,0 M16.0049,1 C16.5539,1 16.9999,1.446 16.9999,1.995 L16.9999,22.005 C16.9999,22.554 16.5539,23 16.0049,23 L1.9949,23 C1.4469,23 0.9999,22.554 0.9999,22.005 L0.9999,1.995 C0.9999,1.446 1.4469,1 1.9949,1 L16.0049,1" id="Fill-1"></path><polygon id="Fill-4" points="0 13 18 13 18 12 0 12"></polygon><polygon id="Fill-6" points="6 7 12 7 12 6 6 6"></polygon><polygon id="Fill-7" points="6 18 12 18 12 17 6 17"></polygon></g></g></g></svg>
