<?xml version="1.0" encoding="UTF-8"?>
<svg width="24px" height="18px" viewBox="0 0 24 18" version="1.1" xmlns="http://www.w3.org/2000/svg" xmlns:xlink="http://www.w3.org/1999/xlink">
    <!-- Generator: Sketch 46.2 (44496) - http://www.bohemiancoding.com/sketch -->
    <title>folder</title>
    <desc>Created with Sketch.</desc>
    <defs></defs>
    <g id="Icons-24-x-24px" stroke="none" stroke-width="1" fill="none" fill-rule="evenodd">
        <g id="folder_24" transform="translate(0.000000, -3.000000)" fill="#000000">
            <path d="M9,3 L1.999,3 C0.895,3 0,3.895 0,4.999 L0,19.001 C0,20.105 0.895,21 1.999,21 L22.001,21 C23.105,21 24,20.105 24,19.001 L24,7.999 C24,6.895 23.105,6 22.001,6 L9,6 L9,3 Z M8,4 L8,6 L8,7 L9,7 L22.001,7 C22.552,7 23,7.448 23,7.999 L23,19.001 C23,19.552 22.552,20 22.001,20 L1.999,20 C1.448,20 1,19.552 1,19.001 L1,4.999 C1,4.448 1.448,4 1.999,4 L8,4 L8,4 Z" id="folder"></path>
        </g>
    </g>
</svg>
