<svg xmlns="http://www.w3.org/2000/svg" width="24px" height="18px" viewBox="0 0 24 24"><path fill="#000000" d="M8 4v3h14a1 1 0 0 1 1 1v11a1 1 0 0 1-1 1H2a1 1 0 0 1-1-1V5a1 1 0 0 1 1-1zm1-1H2a2 2 0 0 0-2 2v14a2 2 0 0 0 2 2h20a2 2 0 0 0 2-2V8a2 2 0 0 0-2-2H9z"/><path fill="#000000" d="M13 15.3a1.3 1.3 0 1 0-1.3-1.3 1.3 1.3 0 0 0 1.3 1.3zM13 16a2.8 2.8 0 0 0-2 .749v.861a.42.42 0 0 0 .445.389h3.11a.42.42 0 0 0 .445-.388v-.861a2.8 2.8 0 0 0-2-.75zM18 15.3a1.3 1.3 0 1 0-1.3-1.3 1.3 1.3 0 0 0 1.3 1.3zM18 16a2.8 2.8 0 0 0-2 .749v.861a.42.42 0 0 0 .445.389h3.11a.42.42 0 0 0 .445-.388v-.861a2.8 2.8 0 0 0-2-.75zM15.5 11.6a1.3 1.3 0 1 0-1.3-1.3 1.3 1.3 0 0 0 1.3 1.3z"/></svg>
