<svg xmlns="http://www.w3.org/2000/svg" width="24px" height="18px" viewBox="0 0 24 24"><path fill="#000000" d="M8 4v3h14a1 1 0 0 1 1 1v11a1 1 0 0 1-1 1H2a1 1 0 0 1-1-1V5a1 1 0 0 1 1-1zm1-1H2a2 2 0 0 0-2 2v14a2 2 0 0 0 2 2h20a2 2 0 0 0 2-2V8a2 2 0 0 0-2-2H9z"/><path fill="#000000" d="M16 14a2 2 0 1 0-2-2 2 2 0 0 0 2 2zM16 15a4.2 4.2 0 0 0-3 1.125v1.291a.629.629 0 0 0 .667.583h4.666a.629.629 0 0 0 .667-.582v-1.291A4.2 4.2 0 0 0 16 15z"/><g><path fill="#000000" d="M9 14a2 2 0 1 0-2-2 2 2 0 0 0 2 2zM9 15a4.2 4.2 0 0 0-3 1.125v1.291a.629.629 0 0 0 .667.584h4.666a.629.629 0 0 0 .667-.583v-1.291A4.2 4.2 0 0 0 9 15z"/></g></svg>
