<svg xmlns="http://www.w3.org/2000/svg" width="24px" height="18px" viewBox="0 0 24 24"><path fill="#000000" d="M8 4v3h14a1 1 0 0 1 1 1v11a1 1 0 0 1-1 1H2a1 1 0 0 1-1-1V5a1 1 0 0 1 1-1zm1-1H2a2 2 0 0 0-2 2v14a2 2 0 0 0 2 2h20a2 2 0 0 0 2-2V8a2 2 0 0 0-2-2H9z"/><path fill="#000000" d="M12.5 9a4.5 4.5 0 1 0 4.5 4.5A4.5 4.5 0 0 0 12.5 9zm-1.993 7.37c.9.024.635-1.174 1.012-1.593.556-.856.014-1.1.413-1.469a.81.81 0 0 0 .328-.822s-.2-.661-.756-.6c-.884.057-.912-.014-1.141-.4a1.344 1.344 0 0 0-.375-.411A3.488 3.488 0 0 1 12.5 10c.02 0 .038.005.057.006a.834.834 0 0 0-.048 1.341c1.151 1.085 1.376-.119 1.376-.119s.08-.159.874.662a1.554 1.554 0 0 0 1.076.6A3.464 3.464 0 0 1 16 13.5a3.443 3.443 0 0 1-.052.511c-.135-.05-.286-.108-.47-.183a1.782 1.782 0 0 0-2.329.832s-.861 1.563.119 1.328c.411.022.376.593.164.87a3.358 3.358 0 0 1-2.925-.488z"/></svg>
