<?xml version="1.0" encoding="UTF-8"?>
<svg width="48px" height="48px" viewBox="0 0 48 48" version="1.1" xmlns="http://www.w3.org/2000/svg" xmlns:xlink="http://www.w3.org/1999/xlink">
    <!-- Generator: Sketch 46.2 (44496) - http://www.bohemiancoding.com/sketch -->
    <title>forum_48</title>
    <desc>Created with Sketch.</desc>
    <defs></defs>
    <g id="Icons-48-x-48px" stroke="none" stroke-width="1" fill="none" fill-rule="evenodd">
        <g id="forum_48" fill="#000000">
            <g id="forum" transform="translate(0.000000, 2.000000)">
                <path d="M41.9982,0 L6.0022,0 C2.6862,0 0.0002,2.688 0.0002,6.002 L0.0002,29.998 C0.0002,33.312 2.6862,36 6.0022,36 L39.0002,36 L48.0002,45 L48.0002,6.002 C48.0002,2.688 45.3122,0 41.9982,0 M41.9982,2 C44.2042,2 46.0002,3.796 46.0002,6.002 L46.0002,40.172 L40.4142,34.586 L39.8282,34 L39.0002,34 L6.0022,34 C3.7942,34 2.0002,32.204 2.0002,29.998 L2.0002,6.002 C2.0002,3.796 3.7942,2 6.0022,2 L41.9982,2" id="Fill-1"></path>
                <path d="M12,14 C9.79,14 8,15.79 8,18 C8,20.21 9.79,22 12,22 C14.21,22 16,20.21 16,18 C16,15.79 14.21,14 12,14 M12,16 C13.102,16 14,16.898 14,18 C14,19.102 13.102,20 12,20 C10.898,20 10,19.102 10,18 C10,16.898 10.898,16 12,16" id="Fill-4"></path>
                <path d="M24,14 C21.79,14 20,15.79 20,18 C20,20.21 21.79,22 24,22 C26.21,22 28,20.21 28,18 C28,15.79 26.21,14 24,14 M24,16 C25.102,16 26,16.898 26,18 C26,19.102 25.102,20 24,20 C22.898,20 22,19.102 22,18 C22,16.898 22.898,16 24,16" id="Fill-6"></path>
                <path d="M36,14 C33.79,14 32,15.79 32,18 C32,20.21 33.79,22 36,22 C38.21,22 40,20.21 40,18 C40,15.79 38.21,14 36,14 M36,16 C37.102,16 38,16.898 38,18 C38,19.102 37.102,20 36,20 C34.898,20 34,19.102 34,18 C34,16.898 34.898,16 36,16" id="Fill-8"></path>
            </g>
        </g>
        <g id="labels" transform="translate(-1.000000, -58.000000)"></g>
    </g>
</svg>