<?xml version="1.0" encoding="UTF-8"?>
<svg width="24px" height="24px" viewBox="0 0 24 24" version="1.1" xmlns="http://www.w3.org/2000/svg" xmlns:xlink="http://www.w3.org/1999/xlink">
    <!-- Generator: Sketch 46.2 (44496) - http://www.bohemiancoding.com/sketch -->
    <title>heart_24</title>
    <desc>Created with Sketch.</desc>
    <defs>
        <polygon id="path-1" points="12.00005 0 24 0 24 22 12.00005 22 0.0001 22 0.0001 0"></polygon>
    </defs>
    <g id="Icons-24-x-24px" stroke="none" stroke-width="1" fill="none" fill-rule="evenodd">
        <g id="heart_24">
            <g id="heart" transform="translate(0.000000, 1.000000)">
                <mask id="mask-2" fill="white">
                    <use xlink:href="#path-1"></use>
                </mask>
                <g id="Clip-2"></g>
                <path d="M17.2941,0 C15.1391,0 13.2271,1.049 12.0001,2.672 C10.7731,1.049 8.8611,0 6.7061,0 C3.0021,0 0.0001,3.085 0.0001,6.89 C0.0001,8.515 0.5531,10.004 1.4701,11.18 L1.4121,11.121 L1.4711,11.182 C1.7811,11.579 2.1321,11.939 2.5181,12.258 L12.0001,22 L21.4821,12.258 C21.8681,11.939 22.2191,11.579 22.5281,11.182 L22.5881,11.121 L22.5301,11.18 C23.4471,10.004 24.0001,8.515 24.0001,6.89 C24.0001,3.085 20.9981,0 17.2941,0 M17.2941,1 C20.4401,1 23.0001,3.642 23.0001,6.89 C23.0001,8.238 22.5651,9.509 21.7411,10.566 L21.7411,10.566 L21.7401,10.567 C21.4771,10.905 21.1761,11.214 20.8461,11.486 L20.8031,11.521 L20.7651,11.56 L12.0001,20.566 L3.2351,11.56 L3.1961,11.521 L3.1541,11.486 C2.8241,11.214 2.5231,10.905 2.2601,10.567 L2.2591,10.566 L2.2591,10.566 C1.4351,9.509 1.0001,8.238 1.0001,6.89 C1.0001,3.642 3.5601,1 6.7061,1 C8.4711,1 10.1091,1.829 11.2021,3.275 L12.0001,4.33 L12.7981,3.275 C13.8901,1.829 15.5291,1 17.2941,1" id="Fill-1" fill="#000000" mask="url(#mask-2)"></path>
            </g>
        </g>
    </g>
</svg>