<svg version="1.1" id="Layer_1" xmlns="http://www.w3.org/2000/svg" xmlns:xlink="http://www.w3.org/1999/xlink" x="0px" y="0px"
	 viewBox="0 0 24 24" style="enable-background:new 0 0 24 24;" xml:space="preserve"><style type="text/css">
	.st0{filter:url(#Adobe_OpacityMaskFilter);}
	.st1{fill:#FFFFFF;}
	.st2{mask:url(#mask-2);}</style><g id="Icons-24-x-24px"><g id="heart_24"><g id="heart" transform="translate(0.000000, 1.000000)"><g id="Clip-2"></g><defs><filter id="Adobe_OpacityMaskFilter" filterUnits="userSpaceOnUse" x="0" y="0" width="24" height="22"><feColorMatrix  type="matrix" values="1 0 0 0 0  0 1 0 0 0  0 0 1 0 0  0 0 0 1 0"/></filter></defs><mask maskUnits="userSpaceOnUse" x="0" y="0" width="24" height="22" id="mask-2"><g class="st0"><polygon id="path-1" class="st1" points="12,0 24,0 24,22 12,22 0,22 0,0 					"/></g></mask><path id="Fill-1" class="st2" d="M17.3,0c-2.2,0-4.1,1-5.3,2.7C10.8,1,8.9,0,6.7,0C3,0,0,3.1,0,6.9c0,1.6,0.6,3.1,1.5,4.3
				l-0.1-0.1l0.1,0.1c0.3,0.4,0.7,0.8,1,1.1L12,22l9.5-9.7c0.4-0.3,0.7-0.7,1-1.1l0.1-0.1l-0.1,0.1C23.4,10,24,8.5,24,6.9
				C24,3.1,21,0,17.3,0"/></g></g></g></svg>
