<svg version="1.1" id="Layer_1" xmlns="http://www.w3.org/2000/svg" xmlns:xlink="http://www.w3.org/1999/xlink" x="0px" y="0px"
	 viewBox="0 0 48 48" style="enable-background:new 0 0 48 48;" xml:space="preserve"><g id="Icons-48-x-48px"><g id="help_48"><g id="help"><path id="Fill-1" d="M24,0C10.7,0,0,10.7,0,24s10.7,24,24,24s24-10.7,24-24S37.3,0,24,0 M24,2c12.1,0,22,9.9,22,22s-9.9,22-22,22
				S2,36.1,2,24S11.9,2,24,2"/><path id="Fill-4" d="M27.7,36c0,1.4-0.8,2.4-2.6,2.4s-2.6-1-2.6-2.4v-0.6c0-1.4,0.8-2.4,2.6-2.4s2.6,1,2.6,2.4V36L27.7,36z
				 M23.3,29.7v-3.9c-3.5-0.7-7.1-3.1-7.1-7.9c0-4.5,3.2-7.5,8.1-7.5c5,0,7.5,3,8.5,6.3l-3.2,1.2c-0.6-2.5-2.3-4.3-5.1-4.3
				c-2.6,0-4.3,1.6-4.3,4.1v0.5c0,3.2,2.5,5,6.7,5.1v6.3H23.3z"/></g></g></g></svg>
