<svg width="24px" height="24px" viewBox="0 0 24 24" version="1.1" xmlns="http://www.w3.org/2000/svg" xmlns:xlink="http://www.w3.org/1999/xlink"><g id="Icons-24-x-24px" stroke="none" stroke-width="1" fill="none" fill-rule="evenodd"><g id="helo_24" fill="#000000"><g id="help"><path d="M12,0 C5.373,0 0,5.364 0,11.98 C0,18.596 5.373,23.96 12,23.96 C18.627,23.96 24,18.596 24,11.98 C24,5.364 18.627,0 12,0 M12,1 C18.065,1 23,5.926 23,11.98 C23,18.034 18.065,22.96 12,22.96 C5.935,22.96 1,18.034 1,11.98 C1,5.926 5.935,1 12,1" id="Fill-1"></path><path d="M10.6582,18.003 L10.6582,17.711 C10.6582,17.01 11.0482,16.504 11.9452,16.504 C12.8422,16.504 13.2322,17.01 13.2322,17.711 L13.2322,18.003 C13.2322,18.704 12.8422,19.21 11.9452,19.21 C11.0482,19.21 10.6582,18.704 10.6582,18.003 L10.6582,18.003 Z M11.1062,14.83 L11.1062,11.675 C13.2122,11.597 14.4602,10.702 14.4602,9.105 L14.4602,8.833 C14.4602,7.567 13.5832,6.769 12.2962,6.769 C10.8922,6.769 10.0342,7.684 9.7212,8.93 L8.1032,8.307 C8.5912,6.652 9.8782,5.153 12.3542,5.153 C14.8112,5.153 16.3912,6.632 16.3912,8.891 C16.3912,11.325 14.5772,12.532 12.8422,12.863 L12.8422,14.83 L11.1062,14.83 Z" id="Fill-4"></path></g></g><g id="labels" transform="translate(-88.000000, -334.000000)"></g></g></svg>
