<?xml version="1.0" encoding="UTF-8"?>
<svg width="24px" height="24px" viewBox="0 0 24 24" version="1.1" xmlns="http://www.w3.org/2000/svg" xmlns:xlink="http://www.w3.org/1999/xlink">
    <!-- Generator: Sketch 46.2 (44496) - http://www.bohemiancoding.com/sketch -->
    <title>images_24 copy 10</title>
    <desc>Created with Sketch.</desc>
    <defs></defs>
    <g id="Icons-24-x-24px" stroke="none" stroke-width="1" fill="none" fill-rule="evenodd">
        <g id="images_24-copy-10">
            <path d="M24,12 C24,18.62775 18.62775,24 12,24 C5.37225,24 0,18.62775 0,12 C0,5.37225 5.37225,0 12,0 C18.62775,0 24,5.37225 24,12" id="Fill-1" fill="#40D5BB"></path>
            <g id="image" transform="translate(6.000000, 6.000000)" fill="#FFFFFF">
                <path d="M8.54983636,3.41994545 L5.12983636,6.83994545 L3.32492727,5.98467273 L0.545290909,8.84394545 L0.545290909,1.09358182 C0.545290909,0.7914 0.791290909,0.5454 1.09347273,0.5454 L10.8762,0.5454 C11.1783818,0.5454 11.4243818,0.7914 11.4243818,1.09358182 L11.4243818,6.29449091 L8.54983636,3.41994545 Z M11.4243818,10.8763091 C11.4243818,11.1784909 11.1783818,11.4244909 10.8762,11.4244909 L1.09347273,11.4244909 C0.791290909,11.4244909 0.545290909,11.1784909 0.545290909,10.8763091 L0.545290909,9.62612727 L3.44383636,6.64467273 L4.89638182,7.33303636 L5.24383636,7.49721818 L5.51547273,7.22558182 L8.54983636,4.19121818 L11.4243818,7.06576364 L11.4243818,10.8763091 Z M10.8762,-5.45454545e-05 L1.09347273,-5.45454545e-05 C0.489654545,-5.45454545e-05 -0.000163636364,0.489763636 -0.000163636364,1.09358182 L-0.000163636364,10.8763091 C-0.000163636364,11.4801273 0.489654545,11.9699455 1.09347273,11.9699455 L10.8762,11.9699455 C11.4800182,11.9699455 11.9698364,11.4801273 11.9698364,10.8763091 L11.9698364,1.09358182 C11.9698364,0.489763636 11.4800182,-5.45454545e-05 10.8762,-5.45454545e-05 L10.8762,-5.45454545e-05 Z" id="Fill-1"></path>
                <path d="M3.84741818,4.58443636 C3.44105455,4.58443636 3.11050909,4.25389091 3.11050909,3.84752727 C3.11050909,3.44116364 3.44105455,3.11061818 3.84741818,3.11061818 C4.25378182,3.11061818 4.58432727,3.44116364 4.58432727,3.84752727 C4.58432727,4.25389091 4.25378182,4.58443636 3.84741818,4.58443636 M3.84741818,2.56516364 C3.13887273,2.56516364 2.56505455,3.13898182 2.56505455,3.84752727 C2.56505455,4.55552727 3.13887273,5.12989091 3.84741818,5.12989091 C4.55596364,5.12989091 5.12978182,4.55552727 5.12978182,3.84752727 C5.12978182,3.13898182 4.55596364,2.56516364 3.84741818,2.56516364" id="Fill-4"></path>
            </g>
        </g>
    </g>
</svg>