<svg width="114px" height="210px" viewBox="0 0 114 210" version="1.1" xmlns="http://www.w3.org/2000/svg" xmlns:xlink="http://www.w3.org/1999/xlink">
    <defs>
        <rect id="path-1" x="0" y="153.549738" width="34.7961165" height="54.4502618"></rect>
    </defs>
    <g id="Page-1" stroke="none" stroke-width="1" fill="none" fill-rule="evenodd">
        <g id="USE-THIS-ONE" transform="translate(-432.000000, -222.000000)">
            <g id="Group-3" transform="translate(432.000000, 224.000000)">
                <g id="Group-2-Copy">
                    <rect id="Rectangle-7" fill="#3C6DF0" x="56.5436893" y="109.989529" width="6.52427184" height="6.53403141" rx="3.26213592"></rect>
                    <rect id="Rectangle-7-Copy" fill="#3C6DF0" x="56.5436893" y="96.921466" width="6.52427184" height="6.53403141" rx="3.26213592"></rect>
                    <rect id="Rectangle-7-Copy-2" fill="#3C6DF0" x="56.5436893" y="83.8534031" width="6.52427184" height="6.53403141" rx="3.26213592"></rect>
                    <g id="Rectangle-26">
                        <use fill="#FFFFFF" fill-rule="evenodd" xlink:href="#path-1"></use>
                        <rect stroke="#777677" stroke-width="4" x="2" y="155.549738" width="30.7961165" height="50.4502618"></rect>
                    </g>
                    <path d="M64.5059316,118.52356 L29.184466,131.299566 L29.184466,198.376963 L92.6019417,198.376963 L92.6019417,118.52356 L64.5059316,118.52356 Z" id="Rectangle-26-Copy" stroke="#777677" stroke-width="4" transform="translate(60.893204, 158.450262) rotate(-90.000000) translate(-60.893204, -158.450262) "></path>
                    <path d="M53.2815534,196.020942 L31.5339806,196.020942 L31.5339806,201.465969 L112,201.465969 L112,196.020942 L68.5048544,196.020942 L68.5048544,199.287958 L53.2815534,199.287958 L53.2815534,196.020942 Z" id="Combined-Shape" fill="#777677"></path>
                    <path d="M29.3592233,76.224436 C16.0980913,75.9348699 5.4368932,65.0781998 5.4368932,51.7277487 C5.4368932,38.1953265 16.3907032,27.2251309 29.9029126,27.2251309 C33.1965895,27.2251309 36.3382545,27.8769448 39.2063154,29.0587985 C39.1660732,28.4527863 39.1456311,27.8413494 39.1456311,27.2251309 C39.1456311,12.1891063 51.3165311,0 66.3300971,0 C81.3436631,0 93.5145631,12.1891063 93.5145631,27.2251309 C93.5145631,27.4708651 93.5113123,27.7158389 93.5048515,27.9600115 C104.131028,30.6290011 112,40.2580518 112,51.7277487 C112,65.0781998 101.338802,75.9348699 88.0776699,76.224436 L88.0776699,76.2303665 L29.3592233,76.2303665 L29.3592233,76.224436 Z" id="Combined-Shape" stroke="#3C6DF0" stroke-width="4"></path>
                    <rect id="Rectangle" fill="#FFFFFF" x="4" y="157" width="27" height="47"></rect>
                </g>
            </g>
        </g>
    </g>
</svg>
