<?xml version="1.0" encoding="UTF-8"?>
<svg width="24px" height="24px" viewBox="0 0 24 24" version="1.1" xmlns="http://www.w3.org/2000/svg" xmlns:xlink="http://www.w3.org/1999/xlink">
    <!-- Generator: Sketch 46.2 (44496) - http://www.bohemiancoding.com/sketch -->
    <title>notification_24</title>
    <desc>Created with Sketch.</desc>
    <defs></defs>
    <g id="Icons-24-x-24px" stroke="none" stroke-width="1" fill="none" fill-rule="evenodd">
        <g id="notification_24" fill="#000000">
            <g id="notification" transform="translate(2.000000, 1.000000)">
                <path d="M10,18 C8.895,18 8,18.895 8,20 C8,21.105 8.895,22 10,22 C11.105,22 12,21.105 12,20 C12,18.895 11.105,18 10,18 M10,19 C10.551,19 11,19.449 11,20 C11,20.551 10.551,21 10,21 C9.449,21 9,20.551 9,20 C9,19.449 9.449,19 10,19" id="Fill-4"></path>
                <path d="M10.0113,0 C6.1513,0 3.0223,3.129 3.0223,6.989 C3.0223,6.992 3.0233,6.996 3.0233,7 L3.0003,7 L3.0003,10 C1.3433,10 0.0003,11.343 0.0003,13 C0.0003,14.657 1.3433,16 3.0003,16 L17.0003,16 C18.6573,16 20.0003,14.657 20.0003,13 C20.0003,11.343 18.6573,10 17.0003,10 L17.0003,7 L16.9993,7 C16.9993,6.996 17.0003,6.992 17.0003,6.989 C17.0003,3.129 13.8713,0 10.0113,0 M10.0113,1 C13.3133,1 16.0003,3.687 16.0013,6.944 L15.9963,7.048 L16.0003,7.072 L16.0003,10 L16.0003,11 L17.0003,11 C18.1033,11 19.0003,11.897 19.0003,13 C19.0003,14.103 18.1033,15 17.0003,15 L3.0003,15 C1.8973,15 1.0003,14.103 1.0003,13 C1.0003,11.897 1.8973,11 3.0003,11 L4.0003,11 L4.0003,10 L4.0003,8 L4.0233,8 L4.0233,7 L4.0223,6.958 L4.0223,6.955 C4.0403,3.668 6.7203,1 10.0113,1" id="Fill-1"></path>
            </g>
        </g>
    </g>
</svg>