<?xml version="1.0" encoding="UTF-8"?>
<svg width="24px" height="24px" viewBox="0 0 24 24" version="1.1" xmlns="http://www.w3.org/2000/svg" xmlns:xlink="http://www.w3.org/1999/xlink">
    <!-- Generator: Sketch 46.2 (44496) - http://www.bohemiancoding.com/sketch -->
    <title>PDF Copy 7</title>
    <desc>Created with Sketch.</desc>
    <defs></defs>
    <g id="Icons-24-x-24px" stroke="none" stroke-width="1" fill="none" fill-rule="evenodd">
        <g id="PDF-Copy-7">
            <g id="Page-1">
                <path d="M24,12 C24,18.627 18.627,24 12,24 C5.373,24 0,18.627 0,12 C0,5.373 5.373,0 12,0 C18.627,0 24,5.373 24,12" id="Fill-1" fill="#E62325"></path>
                <path d="M8.645,12.5684 L8.645,11.6754 C8.645,10.7414 8.076,10.1114 7.163,10.1114 C6.421,10.1114 5.812,10.5384 5.812,11.1164 L5.812,13.0664 C5.812,13.7464 6.421,14.1324 7.163,14.1324 C8.076,14.1324 8.645,13.5024 8.645,12.5684 L8.645,12.5684 Z M5,9.5024 L5.812,9.5024 L5.812,10.3554 L5.853,10.3554 C6.127,9.6954 6.665,9.3804 7.386,9.3804 C8.696,9.3804 9.518,10.4464 9.518,12.1214 C9.518,13.7974 8.696,14.8634 7.386,14.8634 C6.665,14.8634 6.167,14.5384 5.853,13.8884 L5.812,13.8884 L5.812,16.7724 L5,16.7724 L5,9.5024 Z" id="Fill-3" fill="#FFFFFF"></path>
                <path d="M14.2388,13.0659 L14.2388,11.1169 C14.2388,10.5379 13.6298,10.1109 12.8888,10.1109 C11.9748,10.1109 11.4058,10.7409 11.4058,11.6749 L11.4058,12.5679 C11.4058,13.5029 11.9748,14.1319 12.8888,14.1319 C13.6298,14.1319 14.2388,13.7459 14.2388,13.0659 L14.2388,13.0659 Z M14.2388,13.8889 L14.1978,13.8889 C13.8838,14.5379 13.3858,14.8629 12.6648,14.8629 C11.3558,14.8629 10.5328,13.7969 10.5328,12.1219 C10.5328,10.4469 11.3558,9.3799 12.6648,9.3799 C13.3858,9.3799 13.9238,9.6949 14.1978,10.3549 L14.2388,10.3549 L14.2388,7.2279 L15.0508,7.2279 L15.0508,14.7409 L14.2388,14.7409 L14.2388,13.8889 Z" id="Fill-5" fill="#FFFFFF"></path>
                <path d="M17.061,10.2129 L16.208,10.2129 L16.208,9.5029 L17.061,9.5029 L17.061,8.4459 C17.061,7.7259 17.436,7.2279 18.208,7.2279 L19,7.2279 L19,7.9389 L17.873,7.9389 L17.873,9.5029 L19,9.5029 L19,10.2129 L17.873,10.2129 L17.873,14.7409 L17.061,14.7409 L17.061,10.2129 Z" id="Fill-7" fill="#FFFFFF"></path>
            </g>
        </g>
        <rect id="Rectangle-11-Copy" stroke="#D8D8D8" x="-14.5" y="-25.5" width="342" height="62"></rect>
    </g>
</svg>