<svg version="1.1" xmlns="http://www.w3.org/2000/svg" x="0px" y="0px" viewBox="0 0 153 138" style="enable-background:new 0 0 153 138;">
<path fill="#F6F6F6" d="M142.1,70.2l-1.5-0.2l-3.8-0.4l0,0l-0.3,0L117.3,54l0,0l-1.9-1.5l0,0l-4.1-3.3c-0.4-0.3-0.7-0.8-0.7-1.3
	s0.1-1.1,0.4-1.5l4.7-5.8c0.3-0.4,0.8-0.7,1.3-0.7c0.3,0,0.5,0,0.8,0.1c0.3,0.1,0.6,0.2,0.9,0.4L143,59.9c0-0.1,0-0.3,0-0.4
	C143,27.2,116.8,1,84.5,1C61.2,1,41.1,14.6,31.7,34.3l11.4,3.1c1.1,0.2,1.7,1.3,1.4,2.4L44.4,40c0,0.2,0,0.3-0.1,0.5l-4.1,15.4l0,0
	l0,0l-1.6,5.9c-0.1,0.3-0.2,0.5-0.4,0.7c-0.2,0.5-0.7,0.8-1.1,0.9c-0.3,0.1-0.6,0.2-0.9,0.2c-0.2,0-0.4,0-0.6-0.1L26,60.9
	c0.2,7.5,1.8,14.6,4.6,21.2c4.2-7.5,12.2-12.6,21.4-12.6c13.5,0,24.5,11,24.5,24.5c0,8.7-4.6,16.4-11.5,20.8
	c4.7,1.6,9.7,2.7,14.8,3.1l-2.9-6.2c-0.2-0.5-0.2-1-0.1-1.5c0.2-0.5,0.6-0.9,1-1.1l0.1,0c0,0,0.1,0,0.1-0.1l7.8-3.6l7-3.3l0,0
	l9.8,3.5l0,0l3.9,8.3C124.8,106.3,138.4,90,142.1,70.2z M46,33.5c-1.4,0-2.5-1.1-2.5-2.5s1.1-2.5,2.5-2.5s2.5,1.1,2.5,2.5
	S47.4,33.5,46,33.5z M103,12.5c3.6,0,6.5,2.9,6.5,6.5s-2.9,6.5-6.5,6.5s-6.5-2.9-6.5-6.5S99.4,12.5,103,12.5z M82,18.5
	c1.4,0,2.5,1.1,2.5,2.5s-1.1,2.5-2.5,2.5s-2.5-1.1-2.5-2.5S80.6,18.5,82,18.5z M58,23.5c-2.5,0-4.5-2-4.5-4.5s2-4.5,4.5-4.5
	s4.5,2,4.5,4.5S60.5,23.5,58,23.5z M63.5,48c0-9.6,7.9-17.5,17.5-17.5S98.5,38.4,98.5,48S90.6,65.5,81,65.5S63.5,57.6,63.5,48z
	 M102,96.5c-6.9,0-12.5-5.6-12.5-12.5s5.6-12.5,12.5-12.5s12.5,5.6,12.5,12.5S108.9,96.5,102,96.5z M119,103.5
	c-1.4,0-2.5-1.1-2.5-2.5s1.1-2.5,2.5-2.5s2.5,1.1,2.5,2.5S120.4,103.5,119,103.5z M119.5,84c0-2.5,2-4.5,4.5-4.5s4.5,2,4.5,4.5
	s-2,4.5-4.5,4.5S119.5,86.5,119.5,84z"/>
<path fill="#777677" d="M106.6,113.8l-3.9-8.3l0,0l-9.8-3.5l0,0l-7,3.3L78,109l-0.1,0c-0.5,0.2-0.8,0.6-1,1.1c-0.2,0.5-0.2,1.1,0.1,1.5
	l2.9,6.2l7.7,16.4c0.2,0.5,0.6,0.8,1.1,1c0.2,0.1,0.5,0.1,0.7,0.1c0.3,0,0.6-0.1,0.8-0.2l19.9-9.3c0.5-0.2,0.8-0.6,1-1.1
	c0.2-0.5,0.2-1.1-0.1-1.5L106.6,113.8z M101.5,106.1l-3.6,1.7c-1,0.5-2.2,0-2.7-1l-1.6-3.5L101.5,106.1z M110.2,124.5
	c-0.1,0.3-0.3,0.5-0.5,0.6l-19.9,9.3c-0.2,0.1-0.5,0.1-0.8,0c-0.3-0.1-0.5-0.3-0.6-0.5l-10.6-22.7c-0.1-0.2-0.1-0.5,0-0.8
	c0.1-0.3,0.3-0.5,0.5-0.6l14.1-6.6l1.8,3.9c0.7,1.5,2.5,2.2,4,1.5l4-1.9l7.9,16.9C110.3,124,110.3,124.3,110.2,124.5z"/>
<path fill="#777677" d="M101.6,112.5l-15.7,7.3c-0.3,0.1-0.4,0.4-0.2,0.7c0.1,0.2,0.3,0.3,0.5,0.3c0.1,0,0.1,0,0.2,0l15.7-7.3
	c0.3-0.1,0.4-0.4,0.2-0.7C102.2,112.5,101.9,112.4,101.6,112.5z"/>
<path fill="#777677" d="M101.2,117.8l-11,5.1c-0.3,0.1-0.4,0.4-0.2,0.7c0.1,0.2,0.3,0.3,0.5,0.3c0.1,0,0.1,0,0.2,0l11-5.1
	c0.3-0.1,0.4-0.4,0.2-0.7C101.7,117.8,101.4,117.7,101.2,117.8z"/>
<path fill="#777677" d="M52,69.5c-9.2,0-17.2,5.1-21.4,12.6c-2,3.5-3.1,7.6-3.1,11.9c0,13.5,11,24.5,24.5,24.5c4.8,0,9.2-1.4,13-3.7
	c6.9-4.3,11.5-12,11.5-20.8C76.5,80.5,65.5,69.5,52,69.5z M52,117.5c-13,0-23.5-10.5-23.5-23.5S39,70.5,52,70.5S75.5,81,75.5,94
	S65,117.5,52,117.5z"/>
<circle fill="#777677" cx="53.6" cy="89.3" r="1.2"/>
<path fill="#777677" d="M62.7,93.1c-0.3,0-0.5,0.2-0.5,0.5c0,1.3-1,2.3-2.3,2.3c-1.3,0-2.3-1-2.3-2.3c0-0.3-0.2-0.5-0.5-0.5
	s-0.5,0.2-0.5,0.5c0,1.8,1.5,3.3,3.3,3.3c1.8,0,3.3-1.5,3.3-3.3C63.2,93.3,63,93.1,62.7,93.1z"/>
<circle fill="#777677" cx="66.2" cy="89.3" r="1.2"/>
<path fill="#777677" d="M81,65.5c9.6,0,17.5-7.9,17.5-17.5S90.6,30.5,81,30.5S63.5,38.4,63.5,48S71.4,65.5,81,65.5z M81,31.5
	c9.1,0,16.5,7.4,16.5,16.5S90.1,64.5,81,64.5c-9.1,0-16.5-7.4-16.5-16.5S71.9,31.5,81,31.5z"/>
<circle fill="#777677" cx="70.7" cy="51.2" r="1.2"/>
<path fill="#777677" d="M77.1,58.8c1.8,0,3.3-1.5,3.3-3.3c0-0.3-0.2-0.5-0.5-0.5s-0.5,0.2-0.5,0.5c0,1.3-1,2.3-2.3,2.3
	c-1.3,0-2.3-1-2.3-2.3c0-0.3-0.2-0.5-0.5-0.5s-0.5,0.2-0.5,0.5C73.8,57.3,75.3,58.8,77.1,58.8z"/>
<circle fill="#777677" cx="83.4" cy="51.2" r="1.2"/>
<path fill="#777677" d="M103,25.5c3.6,0,6.5-2.9,6.5-6.5s-2.9-6.5-6.5-6.5s-6.5,2.9-6.5,6.5S99.4,25.5,103,25.5z M103,13.5
	c3,0,5.5,2.5,5.5,5.5s-2.5,5.5-5.5,5.5S97.5,22,97.5,19S100,13.5,103,13.5z"/>
<path fill="#777677" d="M124,79.5c-2.5,0-4.5,2-4.5,4.5s2,4.5,4.5,4.5s4.5-2,4.5-4.5S126.5,79.5,124,79.5z M124,87.5
	c-1.9,0-3.5-1.6-3.5-3.5s1.6-3.5,3.5-3.5s3.5,1.6,3.5,3.5S125.9,87.5,124,87.5z"/>
<path fill="#777677" d="M58,23.5c2.5,0,4.5-2,4.5-4.5s-2-4.5-4.5-4.5s-4.5,2-4.5,4.5S55.5,23.5,58,23.5z M58,15.5
	c1.9,0,3.5,1.6,3.5,3.5s-1.6,3.5-3.5,3.5s-3.5-1.6-3.5-3.5S56.1,15.5,58,15.5z"/>
<path fill="#777677" d="M7,65.5c-3.6,0-6.5,2.9-6.5,6.5s2.9,6.5,6.5,6.5s6.5-2.9,6.5-6.5S10.6,65.5,7,65.5z M7,77.5
	c-3,0-5.5-2.5-5.5-5.5c0-3,2.5-5.5,5.5-5.5s5.5,2.5,5.5,5.5C12.5,75,10,77.5,7,77.5z"/>
<path fill="#777677" d="M82,23.5c1.4,0,2.5-1.1,2.5-2.5s-1.1-2.5-2.5-2.5s-2.5,1.1-2.5,2.5S80.6,23.5,82,23.5z M82,19.5
	c0.8,0,1.5,0.7,1.5,1.5s-0.7,1.5-1.5,1.5s-1.5-0.7-1.5-1.5S81.2,19.5,82,19.5z"/>
<path fill="#777677" d="M119,98.5c-1.4,0-2.5,1.1-2.5,2.5s1.1,2.5,2.5,2.5s2.5-1.1,2.5-2.5S120.4,98.5,119,98.5z M119,102.5
	c-0.8,0-1.5-0.7-1.5-1.5s0.7-1.5,1.5-1.5s1.5,0.7,1.5,1.5S119.8,102.5,119,102.5z"/>
<path fill="#777677" d="M65,119.5c-1.4,0-2.5,1.1-2.5,2.5s1.1,2.5,2.5,2.5s2.5-1.1,2.5-2.5S66.4,119.5,65,119.5z M65,123.5
	c-0.8,0-1.5-0.7-1.5-1.5s0.7-1.5,1.5-1.5s1.5,0.7,1.5,1.5S65.8,123.5,65,123.5z"/>
<path fill="#777677" d="M17,87.5c-1.4,0-2.5,1.1-2.5,2.5s1.1,2.5,2.5,2.5s2.5-1.1,2.5-2.5S18.4,87.5,17,87.5z M17,91.5
	c-0.8,0-1.5-0.7-1.5-1.5s0.7-1.5,1.5-1.5s1.5,0.7,1.5,1.5S17.8,91.5,17,91.5z"/>
<path fill="#777677" d="M46,33.5c1.4,0,2.5-1.1,2.5-2.5s-1.1-2.5-2.5-2.5s-2.5,1.1-2.5,2.5S44.6,33.5,46,33.5z M46,29.5
	c0.8,0,1.5,0.7,1.5,1.5s-0.7,1.5-1.5,1.5s-1.5-0.7-1.5-1.5S45.2,29.5,46,29.5z"/>
<path fill="#777677" d="M102,71.5c-6.9,0-12.5,5.6-12.5,12.5s5.6,12.5,12.5,12.5s12.5-5.6,12.5-12.5S108.9,71.5,102,71.5z M102,95.5
	c-6.3,0-11.5-5.2-11.5-11.5s5.2-11.5,11.5-11.5s11.5,5.2,11.5,11.5S108.3,95.5,102,95.5z"/>
<circle fill="#777677" cx="93.2" cy="82.4" r="1"/>
<path fill="#777677" d="M98,85.1c-0.3,0-0.5,0.2-0.5,0.5c0,0.6-0.5,1.1-1.1,1.1s-1.1-0.5-1.1-1.1c0-0.3-0.2-0.5-0.5-0.5
	s-0.5,0.2-0.5,0.5c0,1.2,0.9,2.1,2.1,2.1s2.1-0.9,2.1-2.1C98.5,85.3,98.3,85.1,98,85.1z"/>
<circle fill="#777677" cx="99.6" cy="82.4" r="1"/>
<path fill="#777677" d="M36.3,63.6c0.3,0,0.6-0.1,0.9-0.2c0.1,0,0.2-0.1,0.3-0.1c0.3-0.2,0.6-0.5,0.8-0.8c0.2-0.2,0.3-0.5,0.4-0.7
	l1.6-5.9l0,0l0,0l4.1-15.4c0-0.2,0.1-0.3,0.1-0.5c0-0.5-0.1-1-0.3-1.4c-0.3-0.6-0.9-1-1.5-1.2l-22.2-6c-0.6-0.2-1.3-0.1-1.9,0.3
	c-0.6,0.3-1,0.9-1.2,1.5l-4.8,18.1l0,0l0,0l-0.8,3.2c-0.2,0.6-0.1,1.3,0.3,1.9c0.3,0.6,0.9,1,1.5,1.2L26,60.9l9.6,2.6
	C35.8,63.6,36,63.6,36.3,63.6z M18.3,33.5c0.2-0.7,0.8-1.1,1.4-1.1c0.1,0,0.3,0,0.4,0.1l22.2,6c0.4,0.1,0.7,0.4,0.9,0.7
	c0.2,0.3,0.3,0.8,0.2,1.1l-3.8,14.1l-4.7-11.8l-10.4,8.6l-4.2-6.6l-6.4,5.7L18.3,33.5z M13.7,56.6c-0.4-0.1-0.7-0.4-0.9-0.7
	c-0.2-0.3-0.3-0.8-0.2-1.1l0.8-2.9l6.7-5.9l4.2,6.6l10.3-8.4l4.7,11.8l-1.5,5.6c-0.2,0.8-1,1.3-1.8,1.1L13.7,56.6z"/>
<path fill="#777677" d="M23.8,43.3c0.3,0.1,0.7,0.1,1,0.1c1.6,0,3.1-1.1,3.5-2.6c0.5-1.9-0.7-3.9-2.6-4.4c-2-0.5-4,0.6-4.5,2.5
	c-0.2,0.9-0.1,1.9,0.4,2.7C22,42.5,22.8,43.1,23.8,43.3z M22.1,39.1c0.3-1.2,1.4-1.9,2.6-1.9c0.2,0,0.5,0,0.7,0.1
	c1.4,0.4,2.3,1.8,1.9,3.2c-0.4,1.4-1.8,2.2-3.3,1.8c-0.7-0.2-1.3-0.6-1.7-1.2C22,40.5,21.9,39.8,22.1,39.1z"/>
<path fill="#777677" d="M143.6,60.7l-25.1-20.4c-0.2-0.2-0.4-0.3-0.7-0.3c-0.3-0.1-0.5-0.1-0.8-0.1c-0.5,0.1-1,0.3-1.3,0.7l-4.7,5.8
	c-0.3,0.4-0.5,0.9-0.4,1.5s0.3,1,0.7,1.3l4.1,3.3l0,0l1.9,1.5l0,0l19.2,15.5l0.3,0l3.8,0.5l1.5,0.2l5,0.6L143.6,60.7z M112,48.4
	c-0.2-0.2-0.3-0.4-0.4-0.7c0-0.3,0-0.5,0.2-0.7l4.7-5.8c0.2-0.2,0.4-0.3,0.7-0.4c0.3,0,0.5,0,0.7,0.2l4.1,3.3l-6,7.4L112,48.4z
	 M117.2,52.6l-0.3-0.3l6-7.3l0.3,0.3L117.2,52.6z M117.9,53.2l6-7.4l17.7,14.4l-1.1-0.1l0.5,2.3l-2.2-0.1l0.6,2.2l-2.3,0l0.6,2.1
	l-2.3,0l0.3,1.1L117.9,53.2z M137.1,68.6l-0.3-1l2.3,0l-0.6-2.1l2.3,0l-0.6-2.1l2.2,0.1l-0.5-2.2l1,0.1l1.9,5.6l-1.8,2.2L137.1,68.6
	z"/>
<path fill="#777677" d="M121.1,52.1c-0.2-0.2-0.5-0.1-0.7,0.1c-0.2,0.2-0.1,0.5,0.1,0.7l10.5,8.5c0.1,0.1,0.2,0.1,0.3,0.1
	c0.1,0,0.3-0.1,0.4-0.2c0.2-0.2,0.1-0.5-0.1-0.7L121.1,52.1z"/>
</svg>
