<svg width="24px" height="24px" viewBox="0 0 24 24" version="1.1" xmlns="http://www.w3.org/2000/svg" xmlns:xlink="http://www.w3.org/1999/xlink"><g id="Icons-24-x-24px" stroke="none" stroke-width="1" fill="none" fill-rule="evenodd"><g id="pin_24" fill="#000000"><g id="pin" transform="translate(4.000000, 4.000000)"><path d="M8.954,4.3757 L9.321,4.3467 L9.582,4.0857 L12.375,1.2927 C12.765,0.9037 13.398,0.9037 13.787,1.2927 L15.226,2.7317 C15.615,3.1207 15.615,3.7537 15.226,4.1427 L12.459,6.9097 L12.194,7.1747 L12.169,7.5497 C12.148,7.8547 12.079,8.2407 11.896,8.6377 L7.904,4.6457 C8.287,4.4697 8.659,4.3987 8.954,4.3757 L8.954,4.3757 Z M12.02,10.1767 C12.733,9.4647 13.104,8.5487 13.166,7.6167 L15.933,4.8497 C16.713,4.0697 16.713,2.8047 15.933,2.0247 L14.494,0.5857 C13.714,-0.1953 12.449,-0.1953 11.668,0.5857 L8.875,3.3787 C7.96,3.4517 7.064,3.8197 6.364,4.5197 L8.839,6.9947 L0,15.8337 L0.707,16.5407 L9.546,7.7017 L12.02,10.1767 Z" id="Page-1"></path></g></g></g></svg>
