<?xml version="1.0" encoding="UTF-8"?>
<svg width="24px" height="24px" viewBox="0 0 24 24" version="1.1" xmlns="http://www.w3.org/2000/svg" xmlns:xlink="http://www.w3.org/1999/xlink">
    <!-- Generator: Sketch 46.2 (44496) - http://www.bohemiancoding.com/sketch -->
    <title>presentation copy 5</title>
    <desc>Created with Sketch.</desc>
    <defs></defs>
    <g id="Icons-24-x-24px" stroke="none" stroke-width="1" fill="none" fill-rule="evenodd">
        <g id="presentation-copy-5">
            <path d="M12,24 C5.37225,24 0,18.62775 0,12 C0,5.37225 5.37225,0 12,0 C18.62775,0 24,5.37225 24,12 C24,18.62775 18.62775,24 12,24 Z" id="Fill-1" fill="#FE8500"></path>
            <path d="M6.5,12.2524424 L6.5,7.04467891 C6.5,6.75602449 6.7255,6.52103686 7.0025,6.52103686 L16.9975,6.52103686 C17.2745,6.52103686 17.5,6.75602449 17.5,7.04467891 L17.5,12.2524424 L6.5,12.2524424 Z M17.5,14.3016803 C17.5,14.5903348 17.2745,14.8248014 16.9975,14.8248014 L7.0025,14.8248014 C6.7255,14.8248014 6.5,14.5903348 6.5,14.3016803 L6.5,12.7734792 L17.5,12.7734792 L17.5,14.3016803 Z M16.9975,6 L7.0025,6 C6.4485,6 6,6.46737007 6,7.04467891 L6,12.2524424 L6,12.7734792 L6,14.3016803 C6,14.8784682 6.4485,15.3458382 7.0025,15.3458382 L11.0315,15.3458382 L8.4845,18 L9.1915,18 L11.7385,15.3458382 L12.267,15.3458382 L14.8355,18 L15.5455,18 L12.977,15.3458382 L16.9975,15.3458382 C17.5515,15.3458382 18,14.8784682 18,14.3016803 L18,12.7734792 L18,12.2524424 L18,7.04467891 C18,6.46737007 17.5515,6 16.9975,6 L16.9975,6 Z" id="Fill-1" fill="#FFFFFF"></path>
        </g>
    </g>
</svg>
