<?xml version="1.0" encoding="UTF-8"?>
<svg width="48px" height="48px" viewBox="0 0 48 48" version="1.1" xmlns="http://www.w3.org/2000/svg" xmlns:xlink="http://www.w3.org/1999/xlink">
    <!-- Generator: Sketch 46.2 (44496) - http://www.bohemiancoding.com/sketch -->
    <title>profiles_48</title>
    <desc>Created with Sketch.</desc>
    <defs></defs>
    <g id="Icons-48-x-48px" stroke="none" stroke-width="1" fill="none" fill-rule="evenodd">
        <g id="profiles_48" fill="#000000">
            <g id="profiles" transform="translate(6.000000, 0.000000)">
                <path d="M18,0 C11.372,0 6,5.372 6,12 C6,18.628 11.372,24 18,24 C24.628,24 30,18.628 30,12 C30,5.372 24.628,0 18,0 M18,2 C23.514,2 28,6.486 28,12 C28,17.514 23.514,22 18,22 C12.486,22 8,17.514 8,12 C8,6.486 12.486,2 18,2" id="Fill-1"></path>
                <path d="M18,30 C10.822,30 4.398,33.168 0,38.162 L0,41.988 C0,45.308 2.692,48 6.012,48 L29.988,48 C33.308,48 36,45.308 36,41.988 L36,38.162 C31.602,33.168 25.178,30 18,30 M18,32 C24.052,32 29.84,34.518 34,38.936 L34,41.988 C34,44.2 32.2,46 29.988,46 L6.012,46 C3.8,46 2,44.2 2,41.988 L2,38.936 C6.16,34.518 11.948,32 18,32" id="Fill-3"></path>
            </g>
        </g>
    </g>
</svg>