<svg width="24px" height="24px" viewBox="0 0 24 24" version="1.1" xmlns="http://www.w3.org/2000/svg" xmlns:xlink="http://www.w3.org/1999/xlink"><defs><polygon id="path-1" points="0 6 0 0 8.99985 0 17.9997 0 17.9997 6"></polygon><polygon id="path-3" points="0 22 18 22 18 4 18 0 0 0"></polygon></defs><g id="Icons-24-x-24px" stroke="none" stroke-width="1" fill="none" fill-rule="evenodd"><g id="list-view_24-copy-8"><g id="list-view" transform="translate(3.000000, 1.000000)"><g id="Group-3"><mask id="mask-2" fill="white"><use xlink:href="#path-1"></use></mask><g id="Clip-2"></g><path d="M15.9987,0 L2.0017,0 C0.8957,0 -0.0003,0.896 -0.0003,2.001 L-0.0003,6 L17.9997,6 L17.9997,2.001 C17.9997,0.896 17.1037,0 15.9987,0 M15.9987,1 C16.5507,1 16.9997,1.449 16.9997,2.001 L16.9997,5 L0.9997,5 L0.9997,2.001 C0.9997,1.449 1.4497,1 2.0017,1 L15.9987,1" id="Fill-1" fill="#000000" mask="url(#mask-2)"></path></g><mask id="mask-4" fill="white"><use xlink:href="#path-3"></use></mask><g id="Clip-5"></g><path d="M0,14 L18,14 L18,8 L0,8 L0,14 Z M1,13 L17,13 L17,9 L1,9 L1,13 Z" id="Fill-4" fill="#000000" mask="url(#mask-4)"></path><path d="M18,16 L0,16 L0,19.999 C0,21.104 0.896,22 2.001,22 L15.999,22 C17.104,22 18,21.104 18,19.999 L18,16 Z M17,17 L17,19.999 C17,20.551 16.551,21 15.999,21 L2.001,21 C1.449,21 1,20.551 1,19.999 L1,17 L17,17 L17,17 Z" id="Fill-6" fill="#000000" mask="url(#mask-4)"></path></g></g></g></svg>
