<svg width="24px" height="24px" viewBox="0 0 24 24" version="1.1" xmlns="http://www.w3.org/2000/svg" xmlns:xlink="http://www.w3.org/1999/xlink"><defs><polygon id="path-1" points="5.0001 0 10 0 10 10 0.0002 10 0.0002 0"></polygon></defs><g id="Icons-24-x-24px" stroke="none" stroke-width="1" fill="none" fill-rule="evenodd"><g id="grid-view_24-copy-3"><g id="grid-view" transform="translate(1.000000, 1.000000)"><path d="M10,0 L2.002,0 C0.896,0 0,0.896 0,2.002 L0,10 L10,10 L10,0 Z M9,1 L9,9 L1,9 L1,2.002 C1,1.449 1.449,1 2.002,1 L9,1 L9,1 Z" id="Fill-1" fill="#000000"></path><g id="Group-5" transform="translate(12.000000, 0.000000)"><mask id="mask-2" fill="white"><use xlink:href="#path-1"></use></mask><g id="Clip-4"></g><path d="M7.9982,0 L0.0002,0 L0.0002,10 L10.0002,10 L10.0002,2.002 C10.0002,0.896 9.1042,0 7.9982,0 M7.9982,1 C8.5502,1 9.0002,1.449 9.0002,2.002 L9.0002,9 L1.0002,9 L1.0002,1 L7.9982,1" id="Fill-3" fill="#000000" mask="url(#mask-2)"></path></g><path d="M10,12 L0,12 L0,19.998 C0,21.104 0.896,22 2.002,22 L10,22 L10,12 Z M9,13 L9,21 L2.002,21 C1.449,21 1,20.551 1,19.998 L1,13 L9,13 L9,13 Z" id="Fill-6" fill="#000000"></path><path d="M22,12 L12,12 L12,22 L19.998,22 C21.104,22 22,21.104 22,19.998 L22,12 Z M21,13 L21,19.998 C21,20.551 20.551,21 19.998,21 L13,21 L13,13 L21,13 L21,13 Z" id="Fill-8" fill="#000000"></path></g></g></g></svg>
