<?xml version="1.0" encoding="UTF-8"?>
<svg width="24px" height="24px" viewBox="0 0 24 24" version="1.1" xmlns="http://www.w3.org/2000/svg" xmlns:xlink="http://www.w3.org/1999/xlink">
    <!-- Generator: Sketch 46.2 (44496) - http://www.bohemiancoding.com/sketch -->
    <title>upload_24</title>
    <desc>Created with Sketch.</desc>
    <defs></defs>
    <g id="Icons-24-x-24px" stroke="none" stroke-width="1" fill="none" fill-rule="evenodd">
        <g id="upload_24" fill="#000000">
            <g id="upload" transform="translate(1.000000, 0.000000)">
                <polygon id="Fill-1" points="10.9998 0.0002 3.9928 7.0252 4.7008 7.7322 10.5008 1.9172 10.5008 14.0312 11.4998 14.0312 11.4998 1.9132 17.3108 7.7202 18.0178 7.0132"></polygon>
                <path d="M19.9999,9.0312 L14.9999,9.0312 L14.9999,10.0312 L19.9999,10.0312 C20.5509,10.0312 20.9999,10.4802 20.9999,11.0312 L20.9999,21.0312 C20.9999,21.5822 20.5509,22.0312 19.9999,22.0312 L1.9999,22.0312 C1.4489,22.0312 0.9999,21.5822 0.9999,21.0312 L0.9999,11.0312 C0.9999,10.4802 1.4489,10.0312 1.9999,10.0312 L6.9999,10.0312 L6.9999,9.0312 L1.9999,9.0312 C0.8959,9.0312 -0.0001,9.9262 -0.0001,11.0312 L-0.0001,21.0312 C-0.0001,22.1352 0.8959,23.0312 1.9999,23.0312 L19.9999,23.0312 C21.1049,23.0312 21.9999,22.1352 21.9999,21.0312 L21.9999,11.0312 C21.9999,9.9262 21.1049,9.0312 19.9999,9.0312" id="Fill-2"></path>
            </g>
        </g>
    </g>
</svg>