<svg viewBox="0 0 24 24" height="24px" width="24px" x="0px" y="0px" version="1.1" xmlns="http://www.w3.org/2000/svg"><path fill="#000000" d="M12 1.14A10.94 10.94 0 0 1 23 12a11 11 0 0 1-22 0A10.94 10.94 0 0 1 12 1.14m0-1A11.93 11.93 0 0 0 0 12a11.93 11.93 0 0 0 12 11.86A11.93 11.93 0 0 0 24 12 11.93 11.93 0 0 0 12 .14"></path><path fill="#000000" d="M10.58 18.12v-.32c0-.73.43-1.27 1.42-1.27s1.42.54 1.42 1.27v.33c0 .73-.43 1.27-1.42 1.27s-1.42-.54-1.42-1.28zm.94-2.81l-.68-5.76V5.71h2.3v3.84l-.64 5.76z"></path></svg>