<svg xmlns="http://www.w3.org/2000/svg" viewBox="0 0 207.8 160.02"><defs><style>.cls-1{fill:#f6f6f6;}.cls-2,.cls-3,.cls-5{fill:#fff;}.cls-2,.cls-5,.cls-6{stroke:#777677;}.cls-2,.cls-6{stroke-miterlimit:10;}.cls-4,.cls-6{fill:#777677;}.cls-5{stroke-linecap:round;stroke-linejoin:round;}</style></defs><title>Asset 1</title><g id="Layer_2" data-name="Layer 2"><g id="Layer_1-2" data-name="Layer 1"><circle class="cls-1" cx="80.51" cy="80.01" r="80" transform="translate(-11.25 13.2) rotate(-8.76)"/><circle class="cls-2" cx="171.93" cy="29.34" r="2"/><circle class="cls-2" cx="18.71" cy="4.86" r="2"/><circle class="cls-2" cx="39.71" cy="29.34" r="4"/><circle class="cls-2" cx="194.31" cy="60.26" r="4"/><circle class="cls-2" cx="8.5" cy="52.49" r="8"/><circle class="cls-2" cx="199.3" cy="23.33" r="8"/><rect class="cls-3" x="49.81" y="39.51" width="129" height="81" rx="1.18" ry="1.18"/><path class="cls-4" d="M177.63,40a.68.68,0,0,1,.68.68v78.64a.68.68,0,0,1-.68.68H51a.68.68,0,0,1-.68-.68V40.69A.68.68,0,0,1,51,40H177.63m0-1H51a1.68,1.68,0,0,0-1.68,1.68v78.64A1.68,1.68,0,0,0,51,121H177.63a1.68,1.68,0,0,0,1.68-1.68V40.69A1.68,1.68,0,0,0,177.63,39Z"/><rect class="cls-3" x="54.81" y="44.39" width="119" height="71" rx="1.18" ry="1.18"/><path class="cls-4" d="M172.63,44.89a.68.68,0,0,1,.68.68v68.64a.68.68,0,0,1-.68.68H56a.68.68,0,0,1-.68-.68V45.57a.68.68,0,0,1,.68-.68H172.63m0-1H56a1.68,1.68,0,0,0-1.68,1.68v68.64A1.68,1.68,0,0,0,56,115.89H172.63a1.68,1.68,0,0,0,1.68-1.68V45.57a1.68,1.68,0,0,0-1.68-1.68Z"/><path class="cls-2" d="M89.18,104.48h53c10.27.29,18-8.09,17.09-16.33-.8-7.25-8.17-13.44-17.09-13.06,0-2.47-.55-10.44-6.83-16.33-9-8.44-25.27-8.25-34.17,0a22.75,22.75,0,0,0-6.83,14.7c-.92-.53-8.15-4.56-15.38-1.63-8,3.25-11.58,13.28-8.54,21.23C73.08,100.11,80.71,104.82,89.18,104.48Z"/><path class="cls-5" d="M38.31,120.74h152a0,0,0,0,1,0,0v2a4,4,0,0,1-4,4h-144a4,4,0,0,1-4-4v-2a0,0,0,0,1,0,0Z"/><rect class="cls-5" x="103.31" y="120.74" width="22" height="3" rx="0.7" ry="0.7"/><path class="cls-5" d="M113.56,56.86a20.24,20.24,0,0,1,23.51,11.39"/><path class="cls-5" d="M137.95,70.38l.34,1.24"/><rect class="cls-2" x="18.71" y="71.94" width="24" height="40" rx="1.79" ry="1.79"/><rect class="cls-2" x="21.71" y="74.94" width="18" height="32" rx="1.79" ry="1.79"/><circle class="cls-6" cx="30.71" cy="109.45" r="0.75"/><circle class="cls-2" cx="166.53" cy="71.62" r="2"/><circle class="cls-2" cx="39.71" cy="64.94" r="2"/></g></g></svg>