<?xml version="1.0" encoding="UTF-8"?>
<svg width="48px" height="48px" viewBox="0 0 48 48" version="1.1" xmlns="http://www.w3.org/2000/svg" xmlns:xlink="http://www.w3.org/1999/xlink">
    <!-- Generator: Sketch 46.2 (44496) - http://www.bohemiancoding.com/sketch -->
    <title>wiki_48</title>
    <desc>Created with Sketch.</desc>
    <defs></defs>
    <g id="Icons-48-x-48px" stroke="none" stroke-width="1" fill="none" fill-rule="evenodd">
        <g id="wiki_48" fill="#000000">
            <g id="wiki" transform="translate(0.000000, 10.000000)">
                <path d="M14,9.8288 C11.79,9.8288 10,11.6188 10,13.8288 C10,16.0388 11.79,17.8288 14,17.8288 C16.21,17.8288 18,16.0388 18,13.8288 C18,11.6188 16.21,9.8288 14,9.8288 M14,11.8288 C15.102,11.8288 16,12.7268 16,13.8288 C16,14.9308 15.102,15.8288 14,15.8288 C12.898,15.8288 12,14.9308 12,13.8288 C12,12.7268 12.898,11.8288 14,11.8288" id="Fill-1"></path>
                <path d="M24,9.8288 C21.79,9.8288 20,11.6188 20,13.8288 C20,16.0388 21.79,17.8288 24,17.8288 C26.21,17.8288 28,16.0388 28,13.8288 C28,11.6188 26.21,9.8288 24,9.8288 M24,11.8288 C25.102,11.8288 26,12.7268 26,13.8288 C26,14.9308 25.102,15.8288 24,15.8288 C22.898,15.8288 22,14.9308 22,13.8288 C22,12.7268 22.898,11.8288 24,11.8288" id="Fill-3"></path>
                <path d="M34,9.8288 C31.79,9.8288 30,11.6188 30,13.8288 C30,16.0388 31.79,17.8288 34,17.8288 C36.21,17.8288 38,16.0388 38,13.8288 C38,11.6188 36.21,9.8288 34,9.8288 M34,11.8288 C35.102,11.8288 36,12.7268 36,13.8288 C36,14.9308 35.102,15.8288 34,15.8288 C32.898,15.8288 32,14.9308 32,13.8288 C32,12.7268 32.898,11.8288 34,11.8288" id="Fill-5"></path>
                <path d="M13.5858,26.2428 L2.5858,15.2428 C1.8058,14.4628 1.8058,13.1948 2.5858,12.4148 L13.5858,1.4148 L12.1718,0.0008 L1.1718,10.9988 C-0.3902,12.5628 -0.3902,15.0948 1.1718,16.6568 L12.1718,27.6568 L13.5858,26.2428 Z" id="Fill-7"></path>
                <path d="M34.4142,26.2428 L45.4142,15.2428 C46.1942,14.4628 46.1942,13.1948 45.4142,12.4148 L34.4142,1.4148 L35.8282,0.0008 L46.8282,10.9988 C48.3902,12.5628 48.3902,15.0948 46.8282,16.6568 L35.8282,27.6568 L34.4142,26.2428 Z" id="Fill-9"></path>
            </g>
        </g>
    </g>
</svg>